<?xml version="1.0" standalone="no"?><!DOCTYPE svg PUBLIC "-//W3C//DTD SVG 1.1//EN" "http://www.w3.org/Graphics/SVG/1.1/DTD/svg11.dtd"><svg t="1715685033016" class="icon" viewBox="0 0 1024 1024" version="1.1" xmlns="http://www.w3.org/2000/svg" p-id="61039" xmlns:xlink="http://www.w3.org/1999/xlink" width="16" height="16"><path d="M755.9 946.4H268.1c-18.5 0-33.6 15.1-33.6 33.6s15.1 33.6 33.6 33.6h486.1c18.5 0 33.6-15.1 33.6-33.6 0.1-18.4-13.4-33.6-31.9-33.6z m193.5-169.9H74.6c-18.5 0-33.6 15.1-33.6 33.6s15.1 33.6 33.6 33.6h874.7c18.5 0 33.6-15.1 33.6-33.6 0.1-18.4-13.4-33.6-33.5-33.6zM804.7 340.8H626.4V27.1c0-10.1-8.4-16.8-16.8-16.8H414.4c-10.1 0-16.8 8.4-16.8 16.8v313.7H219.3c-6.7 0-13.5 3.4-15.1 10.1-3.4 6.7-1.7 13.5 3.4 18.5l292.7 292.7c3.4 3.4 8.4 5 11.8 5 3.4 0 8.4-1.7 11.8-5l292.7-292.7c5-3.4 6.7-11.8 3.4-18.5-3.5-6.7-8.6-10.1-15.3-10.1z" fill="#0076ad" p-id="61040"></path></svg>