<?xml version="1.0" standalone="no"?><!DOCTYPE svg PUBLIC "-//W3C//DTD SVG 1.1//EN" "http://www.w3.org/Graphics/SVG/1.1/DTD/svg11.dtd"><svg t="1727072535674" class="icon" viewBox="0 0 1024 1024" version="1.1" xmlns="http://www.w3.org/2000/svg" p-id="7857" width="16" height="16" xmlns:xlink="http://www.w3.org/1999/xlink"><path d="M812.509867 179.268267c0 20.411733-16.5888 36.864-37.000534 36.864H242.619733a36.864 36.864 0 0 1 0-72.772267h532.8896c20.411733 0 37.000533 16.520533 37.000534 36.864v-0.955733zM477.866667 649.216L552.004267 723.626667v141.312a37.205333 37.205333 0 0 1-28.194134 33.109333l-5.870933 0.955733a37.2736 37.2736 0 0 1-39.185067-28.125866L477.866667 864.938667V649.284267z m-184.456534-184.32l52.360534 52.4288-75.776 75.5712a37.0688 37.0688 0 0 1-47.240534 4.3008l-5.12-4.3008a36.864 36.864 0 0 1-4.3008-47.104l4.3008-5.051733 75.776-75.776zM516.778667 258.730667l1.706666 0.068266a35.771733 35.771733 0 0 1 2.525867 0.341334l2.8672 0.682666a29.149867 29.149867 0 0 1 4.573867 1.365334 27.921067 27.921067 0 0 1 5.461333 2.730666l1.570133 1.297067-1.092266-0.887467a36.181333 36.181333 0 0 1 7.099733 5.9392l1.8432 1.8432 269.243733 268.629334a37.0688 37.0688 0 0 1-0.068266 47.581866 37.341867 37.341867 0 0 1-46.967467 8.3968l-5.461333-3.822933-208.008534-207.325867v144.930134L477.866667 456.2944V385.706667l-35.293867 35.157333-52.4288-52.360533 95.914667-95.573334 2.8672-3.003733a35.703467 35.703467 0 0 1 12.288-8.6016c0.341333 0 0.682667-0.136533 0.955733-0.273067a24.098133 24.098133 0 0 1 4.5056-1.501866l1.8432-0.341334a25.8048 25.8048 0 0 1 3.8912-0.546133h4.437333z" fill="#3075a8" p-id="7858"></path><path d="M741.376 815.650133c-14.404267 14.336-39.389867 12.765867-55.842133-3.618133l-428.032-428.032c-13.9264-18.568533-11.4688-43.008 5.461333-54.613333 13.1072-8.942933 31.607467-7.714133 46.011733 3.072l428.032 428.032c16.452267 16.384 18.090667 41.437867 3.6864 55.842133l0.682667-0.682667z" fill="#3075a8" p-id="7859"></path></svg>